<?xml version="1.0" encoding="UTF-8"?>
<svg xmlns="http://www.w3.org/2000/svg" viewBox="0 0 1024 1024">
  <defs>
    <style>
      .cls-1 {
        fill: #2799ff;
      }

      .cls-2 {
        fill: #157ecc;
      }

      .cls-3 {
        fill: #0c5ba3;
      }

      .cls-4 {
        fill: #fff;
      }

      .cls-5 {
        fill: #1d93db;
      }

      .cls-6 {
        fill: #2bbdf7;
      }

      .cls-7 {
        fill: #23a6e8;
      }
    </style>
  </defs>
  <g id="Layer_2">
    <rect class="cls-4" x="-1" y="-1" width="1026" height="1026"/>
  </g>
  <g id="Layer_1">
    <path class="cls-1" d="M920.4,274.7c131.06,225.55,54.45,514.64-171.1,645.7-225.55,131.06-514.64,54.45-645.7-171.1C-27.46,523.75,49.14,234.66,274.7,103.6,500.25-27.46,789.34,49.14,920.4,274.7ZM324.21,188.81c-178.49,103.71-239.11,332.49-135.4,510.98,103.71,178.49,332.49,239.11,510.98,135.4,178.49-103.71,239.11-332.49,135.4-510.98-103.71-178.49-332.49-239.11-510.98-135.4Z"/>
    <g>
      <path class="cls-3" d="M665.61,642.38c0,.79.05,1.56.11,2.34"/>
      <path class="cls-3" d="M730.67,676.06c18.58-5.01,31.84-18.2,31.84-33.68"/>
    </g>
    <path class="cls-2" d="M704.18,576.43c-.37,1.1-.74,2.2-1.13,3.29-.12.34-.25.68-.37,1.02-.55,1.51-1.11,3.02-1.69,4.52-.04.11-.09.22-.13.33-5.06,12.93-11.3,25.05-18.54,36.29-.07.1-.13.21-.2.31-.81,1.25-1.63,2.49-2.47,3.72-.17.25-.34.5-.51.75-.73,1.07-1.48,2.13-2.23,3.18-.29.4-.57.8-.86,1.19-.65.89-1.3,1.77-1.96,2.65-.41.54-.82,1.08-1.23,1.62-.55.72-1.11,1.43-1.67,2.14-.53.68-1.07,1.35-1.61,2.02-.45.56-.91,1.12-1.37,1.67-.66.79-1.32,1.58-1.99,2.37-.36.42-.71.83-1.07,1.24-.78.9-1.57,1.79-2.36,2.67-.26.29-.52.58-.79.87-.89.98-1.8,1.95-2.71,2.91-.18.19-.35.37-.53.56-1,1.05-2.01,2.08-3.03,3.1-.1.1-.2.2-.3.3-1.09,1.09-2.2,2.17-3.31,3.24-.04.04-.07.07-.11.11-7.07,6.74-14.61,12.95-22.53,18.58-.02.02-.05.03-.07.05-1.27.9-2.56,1.79-3.85,2.67-.09.06-.18.12-.26.18-1.22.82-2.46,1.63-3.7,2.43-.17.11-.34.22-.51.33-1.16.74-2.32,1.46-3.49,2.18-.27.16-.53.32-.8.49-1.08.65-2.16,1.29-3.24,1.92-.38.22-.75.43-1.13.65-.98.56-1.97,1.11-2.96,1.65-.5.27-1,.54-1.5.81-.87.47-1.75.93-2.63,1.39-.63.33-1.26.65-1.89.97-.76.38-1.52.76-2.29,1.14-.76.37-1.53.74-2.3,1.11-.64.3-1.28.61-1.92.9-.9.42-1.81.83-2.71,1.23-.52.23-1.04.46-1.56.69-1.04.45-2.07.89-3.12,1.32-.4.17-.81.33-1.21.5-1.16.47-2.33.94-3.5,1.39-.29.11-.58.22-.87.34-1.28.49-2.57.96-3.86,1.43-.19.07-.38.14-.57.2-1.39.49-2.78.97-4.18,1.43-.1.03-.21.07-.31.1-1.48.49-2.97.96-4.46,1.41-.03,0-.06.02-.09.03-9.3,2.82-18.82,4.97-28.48,6.44-.05,0-.11.02-.16.02-1.52.23-3.05.44-4.58.64-.14.02-.28.04-.42.05-1.43.18-2.87.34-4.31.49-.26.03-.51.05-.77.08-1.32.13-2.64.25-3.96.36-.39.03-.78.06-1.18.09-1.18.09-2.37.16-3.55.23-.55.03-1.1.06-1.65.08-1.03.05-2.06.09-3.08.13-.72.02-1.44.04-2.16.06-.86.02-1.72.03-2.58.04-.91,0-1.81,0-2.72,0-.68,0-1.35,0-2.03-.02-1.1-.02-2.2-.04-3.31-.08-.49-.01-.97-.03-1.46-.05-1.3-.05-2.59-.11-3.89-.19-.3-.02-.6-.03-.9-.05-1.49-.09-2.97-.2-4.46-.33-.12-.01-.24-.02-.36-.03-13.32-1.15-26.73-3.64-40.06-7.56-.11-.03-.23-.07-.34-.1-1.32-.39-2.64-.8-3.95-1.22-.47-.15-.95-.3-1.42-.45-.9-.29-1.79-.6-2.69-.91-.89-.31-1.78-.61-2.67-.93-.47-.17-.94-.34-1.41-.52-1.29-.47-2.58-.95-3.86-1.45-.11-.04-.23-.09-.34-.13-12.93-5.06-25.05-11.3-36.29-18.54-.1-.07-.21-.13-.31-.2-1.25-.81-2.49-1.64-3.72-2.47-.25-.17-.5-.34-.75-.51-1.07-.74-2.13-1.48-3.19-2.23-.4-.28-.79-.57-1.19-.86-.89-.65-1.78-1.3-2.65-1.96-.54-.41-1.08-.82-1.62-1.23-.72-.55-1.43-1.11-2.14-1.67-.68-.53-1.35-1.07-2.01-1.61-.56-.45-1.12-.91-1.67-1.37-.79-.66-1.58-1.32-2.37-1.99-.42-.36-.83-.71-1.25-1.07-.9-.78-1.79-1.57-2.67-2.36-.29-.26-.58-.53-.87-.79-.98-.89-1.95-1.79-2.91-2.71-.19-.18-.37-.35-.56-.53-1.05-1-2.08-2.01-3.1-3.03-.1-.1-.2-.2-.3-.3-1.09-1.09-2.17-2.19-3.23-3.31-.04-.04-.07-.08-.11-.12-6.74-7.07-12.94-14.6-18.57-22.53-.02-.03-.04-.05-.06-.08-.9-1.27-1.79-2.55-2.66-3.84-.06-.09-.12-.18-.18-.27-.82-1.22-1.63-2.45-2.43-3.69-.11-.17-.22-.34-.33-.51-.74-1.16-1.46-2.32-2.18-3.49-.16-.27-.32-.53-.49-.8-.65-1.07-1.29-2.16-1.92-3.24-.22-.38-.44-.76-.65-1.14-.56-.98-1.11-1.96-1.65-2.95-.27-.5-.55-1-.82-1.51-.47-.87-.93-1.75-1.39-2.62-.33-.63-.65-1.26-.97-1.9-.38-.76-.76-1.52-1.14-2.28-.37-.76-.74-1.53-1.11-2.3-.3-.64-.61-1.28-.9-1.93-.42-.9-.83-1.8-1.23-2.71-.23-.52-.46-1.04-.69-1.56-.45-1.04-.89-2.07-1.32-3.12-.17-.4-.33-.8-.5-1.2-.47-1.16-.94-2.33-1.39-3.5-.11-.29-.22-.58-.34-.87-.49-1.28-.97-2.57-1.43-3.86-.07-.19-.14-.38-.2-.57-.49-1.39-.97-2.78-1.43-4.18-.03-.1-.07-.2-.1-.31-.49-1.48-.96-2.97-1.41-4.46,0-.03-.02-.06-.03-.09-2.82-9.3-4.97-18.82-6.44-28.48,0-.05-.02-.11-.02-.16-.23-1.52-.44-3.05-.64-4.58-.02-.14-.04-.29-.05-.43-.18-1.43-.34-2.87-.49-4.3-.03-.26-.05-.51-.08-.77-.13-1.32-.25-2.64-.36-3.96-.03-.39-.06-.78-.09-1.17-.09-1.18-.16-2.37-.23-3.55-.03-.55-.06-1.09-.08-1.64-.05-1.03-.09-2.06-.13-3.09-.02-.72-.04-1.44-.06-2.16-.02-.86-.03-1.72-.04-2.58,0-.91,0-1.81,0-2.72,0-.68,0-1.36.02-2.03.02-1.1.04-2.2.08-3.3.01-.49.03-.98.05-1.47.05-1.29.11-2.59.19-3.88.02-.3.03-.6.05-.91.09-1.48.2-2.97.33-4.46.01-.12.02-.24.03-.36,1.15-13.32,3.64-26.73,7.56-40.05.03-.12.07-.23.1-.35.39-1.32.8-2.63,1.22-3.94.15-.48.3-.95.46-1.43.29-.9.6-1.79.9-2.68.31-.89.61-1.79.93-2.68.17-.47.34-.93.51-1.4.47-1.29.95-2.58,1.45-3.87,37.81-97.48,144.73-151.27,246.8-121.11,18.57,5.49,38.11-5.27,43.6-23.84,5.49-18.57-5.12-38.07-23.69-43.55-140.61-41.54-288.06,35.26-335.62,172.34-.16.45-.31.91-.47,1.36-.16.46-.32.92-.47,1.39-9.74,28.9-14.35,58.4-14.31,87.46,0,.09,0,.19,0,.28,0,.66,0,1.32.02,1.97,0,.53,0,1.06.02,1.59,0,.18,0,.36.01.54.7,40.59,10.49,79.99,27.94,115.56,17.44,35.59,42.59,67.46,74.26,92.87.14.11.28.23.43.34.41.33.83.66,1.24.98.52.41,1.03.82,1.56,1.23.07.05.14.11.21.16,22.95,17.84,49.1,32.25,77.92,42.25.45.16.91.31,1.36.47.46.16.92.32,1.39.47,28.9,9.74,58.4,14.35,87.46,14.31.09,0,.19,0,.28,0,.66,0,1.32,0,1.97-.02.53,0,1.06,0,1.59-.02.18,0,.36,0,.54-.01,40.59-.7,79.99-10.49,115.56-27.94,35.59-17.44,67.48-42.6,92.89-74.28.11-.14.22-.27.33-.4.33-.42.66-.84.99-1.26.41-.51.81-1.03,1.22-1.55.06-.07.11-.14.17-.22,18.2-23.41,32.83-50.16,42.85-79.67"/>
    <circle class="cls-6" cx="750" cy="508" r="35"/>
    <g>
      <rect class="cls-2" x="715.52" y="573.61" width="70.74" height="177.09" rx="35.37" ry="35.37"/>
      <rect class="cls-2" x="662.34" y="520.43" width="70.74" height="177.09" rx="35.37" ry="35.37" transform="translate(1306.69 -88.74) rotate(90)"/>
      <path class="cls-2" d="M649.65,660.91l70.12-70.12c13.81-13.81,36.21-13.81,50.02,0h0c13.81,13.81,13.81,36.21,0,50.02l-65.55,65.55"/>
    </g>
    <rect class="cls-4" x="678.78" y="538.6" width="37.86" height="140.75" rx="18.93" ry="18.93" transform="translate(1306.69 -88.74) rotate(90)"/>
    <rect class="cls-4" x="730.23" y="590.05" width="37.86" height="140.75" rx="18.93" ry="18.93"/>
    <circle class="cls-7" cx="731.5" cy="418.5" r="35"/>
    <circle class="cls-5" cx="672.5" cy="336.5" r="35"/>
  </g>
</svg>